<?xml version="1.0" encoding="UTF-8"?>
<svg version="1.1" xmlns="http://www.w3.org/2000/svg" width="500" height="500">
<path d="M0 0 C165 0 330 0 500 0 C500 165 500 330 500 500 C335 500 170 500 0 500 C0 335 0 170 0 0 Z " fill="#1A1A1A" transform="translate(0,0)"/>
<path d="M0 0 C3.5320826 3.47501125 6.88037094 7.0569578 10.1875 10.75 C19.12288454 20.5429648 28.68860821 28.1481673 40 35 C40.58378418 35.35529785 41.16756836 35.7105957 41.76904297 36.07666016 C47.86860572 39.78111551 53.99924052 43.42704436 60.18359375 46.98828125 C61.07481934 47.50801514 61.96604492 48.02774902 62.88427734 48.56323242 C64.62449335 49.57801472 66.37065288 50.5826965 68.12353516 51.57543945 C75.28960816 55.77725339 80.52853433 60.44550024 83.375 68.4375 C83.69210938 69.30246094 84.00921875 70.16742188 84.3359375 71.05859375 C84.55507812 71.69925781 84.77421875 72.33992188 85 73 C89.10010305 71.60117276 89.10010305 71.60117276 91.8125 68.25 C93.04973001 64.86389681 93.40563802 62.56961454 93 59 C90.4345406 56.4345406 88.52313332 56.45953913 85 56 C85.0625 54.1875 85.0625 54.1875 86 52 C89.5 50.3125 89.5 50.3125 93 49 C93.33 48.67 93.66 48.34 94 48 C99.02784731 47.86743905 103.58763474 48.15096507 107.5625 51.4375 C111.48453384 55.56066378 111.26827604 58.67332636 111.62109375 64.17578125 C112.00906719 67.06758326 112.80721714 69.34883485 114 72 C115.93959767 69.22497446 115.93959767 69.22497446 117.0078125 66.984375 C117.37648438 66.24703125 117.74515625 65.5096875 118.125 64.75 C118.47820312 64.02296875 118.83140625 63.2959375 119.1953125 62.546875 C124.14607974 55.56007795 131.29788051 51.39059672 138.6875 47.375 C140.54840678 46.33346128 142.40773697 45.28910156 144.265625 44.2421875 C145.21244141 43.70948242 146.15925781 43.17677734 147.13476562 42.62792969 C164.9960676 32.47973937 185.92204495 20.54680663 196.64453125 2.18359375 C197.09183594 1.46300781 197.53914062 0.74242187 198 0 C198.66 0 199.32 0 200 0 C196.21410835 15.67491981 192.54140228 29.92844163 178.1640625 38.71484375 C171.0447211 43.05536159 163.75940034 47.07655056 156.4375 51.0625 C153.97667507 52.40538605 151.51705877 53.75045474 149.05859375 55.09765625 C148.46783051 55.42126129 147.87706726 55.74486633 147.2684021 56.07827759 C141.44952736 59.278995 135.71633911 62.61949691 130 66 C134.49673957 64.61700995 138.54831136 62.83329694 142.734375 60.69140625 C143.36606094 60.36840546 143.99774689 60.04540466 144.64857483 59.71261597 C146.68518813 58.66792758 148.71779828 57.61574117 150.75 56.5625 C151.44064545 56.20672882 152.13129089 55.85095764 152.84286499 55.48440552 C162.13177638 50.69337084 171.23545277 45.72933938 179.99707031 40.01196289 C181.63221889 38.95587851 183.31166498 37.96878788 185 37 C185.66 37.33 186.32 37.66 187 38 C184.9547725 41.75966869 182.88589866 45.50580436 180.8125 49.25 C180.23435547 50.31347656 179.65621094 51.37695312 179.06054688 52.47265625 C178.20493164 54.00986328 178.20493164 54.00986328 177.33203125 55.578125 C176.81358643 56.52075195 176.2951416 57.46337891 175.76098633 58.43457031 C170.83095146 65.61671454 163.87657099 67.08738667 155.75683594 68.60693359 C152.30094536 69.17370754 148.8416386 69.69088566 145.375 70.1875 C144.18003906 70.36474609 142.98507812 70.54199219 141.75390625 70.72460938 C138.83683924 71.15633529 135.91896218 71.58131476 133 72 C142.00141806 71.51481718 150.84049443 70.71597018 159.7578125 69.40234375 C162.55458587 69.05527428 165.18786476 68.92041127 168 69 C153.66442038 83.81343227 153.66442038 83.81343227 147.4296875 84.25 C142.60142492 84.18891037 138.58379582 82.73658363 134.125 81 C129.18952323 78.87861744 129.18952323 78.87861744 124 78 C124.66386719 78.38671875 125.32773437 78.7734375 126.01171875 79.171875 C137.71692061 86.07538091 137.71692061 86.07538091 141 91 C141.81277868 95.55156062 141.7192682 97.75477782 139.38671875 101.79296875 C135.93709769 106.60684673 132.24824535 110.8707948 128 115 C128.03480469 113.97261719 128.06960938 112.94523437 128.10546875 111.88671875 C128.4326328 98.30365646 126.65373453 88.92978525 118 78 C118.63228516 79.57201172 118.63228516 79.57201172 119.27734375 81.17578125 C119.83077494 82.55466913 120.38415784 83.93357639 120.9375 85.3125 C121.21529297 86.00279297 121.49308594 86.69308594 121.77929688 87.40429688 C123.80379958 92.45335783 125.16847634 96.4265019 125.25 101.875 C125.27578125 102.90367187 125.3015625 103.93234375 125.328125 104.9921875 C125 108 125 108 123.421875 110.5703125 C121.75709718 112.90290672 121.75709718 112.90290672 122.140625 115.578125 C125.09053597 123.89151047 133.37562614 128.60291863 140.40234375 133.21484375 C141.25957031 133.80394531 142.11679687 134.39304687 143 135 C143 135.33 143 135.66 143 136 C131.37029269 136.75708764 131.37029269 136.75708764 126.56640625 133.5390625 C122.35149179 129.3977251 119.1550084 123.80190265 118 118 C117.34 118 116.68 118 116 118 C119.09209679 126.65192468 123.03458295 133.06009981 129 140 C129.66 140.99 130.32 141.98 131 143 C127.98716918 143.44090207 125.81839342 143.48171258 123.1484375 141.91015625 C117.68875084 137.53079057 115.52094131 132.98357296 114.3125 126.0625 C114.209375 125.051875 114.10625 124.04125 114 123 C113.34 123 112.68 123 112 123 C108.90966488 127.63550267 107.99735809 132.44615018 109 138 C113.24154638 147.27635907 121.6197957 153.62807417 130 159 C130 159.33 130 159.66 130 160 C119.39055794 160.77253219 119.39055794 160.77253219 114.625 158.125 C110.97191911 154.37406873 108.49726304 149.5606045 106 145 C108.22249961 153.44549851 113.33840107 160.50581299 119 167 C119 167.33 119 167.66 119 168 C114.7476422 167.74986131 112.52435219 167.43113402 109.1875 164.6875 C107.36922686 162.45362157 106.19673526 160.57758364 105 158 C104.34 157.67 103.68 157.34 103 157 C103.16048828 158.051875 103.16048828 158.051875 103.32421875 159.125 C104.1620712 165.75574623 103.85573906 169.94583319 101 176 C100.34 176 99.68 176 99 176 C95.89640604 170.95665982 95.39985931 166.77058356 96 161 C96.33 160.34 96.66 159.68 97 159 C95.05000871 159.19471111 95.05000871 159.19471111 93 160 C92.71125 160.598125 92.4225 161.19625 92.125 161.8125 C90.44988312 165.06967172 88.16495665 166.26237674 85 168 C82.125 168.25 82.125 168.25 80 168 C80.58007812 167.38125 80.58007812 167.38125 81.171875 166.75 C85.05737783 162.4413236 87.59273608 158.2774632 90 153 C89.46890625 153.49371094 88.9378125 153.98742187 88.390625 154.49609375 C87.68421875 155.13675781 86.9778125 155.77742187 86.25 156.4375 C85.20585937 157.39462891 85.20585937 157.39462891 84.140625 158.37109375 C80.4747396 161.16064523 77.25417601 161.12176547 72.75 161.0625 C71.85796875 161.05347656 70.9659375 161.04445313 70.046875 161.03515625 C69.03367188 161.01775391 69.03367188 161.01775391 68 161 C70.60812824 158.15964116 73.6107079 156.09800126 76.75 153.875 C82.63025567 149.54283523 88.63963517 144.8831593 90.67578125 137.57421875 C91.19776189 133.73168655 91.00284729 130.73717311 90 127 C90 126.34 90 125.68 90 125 C89.34 124.34 88.68 123.68 88 123 C87.82984375 123.64066406 87.6596875 124.28132813 87.484375 124.94140625 C83.93645145 137.60447382 83.93645145 137.60447382 78.625 141.9375 C75.57822423 143.17071876 73.25772389 143.22728306 70 143 C70.825 142.13375 71.65 141.2675 72.5 140.375 C75.6123652 136.76495349 77.96662391 132.87759448 80.3125 128.75 C80.66183594 128.13560059 81.01117188 127.52120117 81.37109375 126.88818359 C82.82463884 124.28224621 84.05403782 121.83788654 85 119 C82.25082786 120.37458607 81.98588898 121.96513017 80.75 124.75 C78.15911956 130.1239627 75.41393146 133.29303427 70 136 C67.95944995 136.07065617 65.91665743 136.08421976 63.875 136.0625 C62.77929688 136.05347656 61.68359375 136.04445313 60.5546875 136.03515625 C59.71164063 136.02355469 58.86859375 136.01195312 58 136 C60.47708304 133.31649337 63.24817285 131.37940054 66.25 129.3125 C71.26655034 125.72163594 75.21672577 121.85498672 79 117 C77.87548273 114.0280615 76.77706209 111.66559313 75 109 C73.59541937 98.99051486 76.24508111 91.13491743 80 82 C80.495 80.515 80.495 80.515 81 79 C80.05174959 80.32570931 79.11703784 81.66110365 78.1875 83 C77.66542969 83.7425 77.14335937 84.485 76.60546875 85.25 C72.73898377 91.87288424 71.52949139 97.88670211 71.3125 105.5 C71.27833984 106.32242188 71.24417969 107.14484375 71.20898438 107.9921875 C71.1275012 109.9943455 71.06205425 111.99714568 71 114 C65.34024749 108.51589498 60.44533764 102.81043559 57.625 95.375 C58.20911899 90.11792907 61.06112354 87.35611934 65 84 C67.90294477 82.10139157 70.86414093 80.47904464 74 79 C70.90617655 79 68.69162743 79.73730414 65.80932617 80.78076172 C53.34833302 85.26909597 53.34833302 85.26909597 48 84 C45.26882659 81.94292194 42.85016185 79.72678172 40.41015625 77.33203125 C38.31649257 75.3062335 36.2711557 73.6410036 33.875 72 C32.451875 71.01 32.451875 71.01 31 70 C31 69.67 31 69.34 31 69 C36.57472736 69.5366005 42.14236094 70.1211794 47.70703125 70.75390625 C49.45209961 70.95209961 49.45209961 70.95209961 51.23242188 71.15429688 C53.63886146 71.42868088 56.04510949 71.70474962 58.45117188 71.98242188 C59.60810547 72.11326172 60.76503906 72.24410156 61.95703125 72.37890625 C62.99835205 72.4982251 64.03967285 72.61754395 65.11254883 72.74047852 C67.76233357 72.97863876 70.34167098 73.04862238 73 73 C71.92105469 72.83918945 70.84210938 72.67837891 69.73046875 72.51269531 C65.69526882 71.90757448 61.66300243 71.28452061 57.63134766 70.65625 C55.89217854 70.38774217 54.1522688 70.12398374 52.41162109 69.86523438 C49.89727365 69.49060381 47.38616145 69.09848368 44.875 68.703125 C43.72294067 68.5372287 43.72294067 68.5372287 42.54760742 68.36798096 C35.73877836 67.2657244 29.54449449 65.21795922 25.0625 59.75 C22.16826275 55.52119779 19.6196632 51.0634025 17.0625 46.625 C16.64814697 45.91053711 16.23379395 45.19607422 15.80688477 44.45996094 C14.80632582 42.6748462 13.89490769 40.84035134 13 39 C13.33 38.34 13.66 37.68 14 37 C14.48428467 37.28496338 14.96856934 37.56992676 15.4675293 37.86352539 C26.98096673 44.6082729 38.64729089 51.00112826 50.5 57.125 C51.13505463 57.45396271 51.77010925 57.78292542 52.42440796 58.12185669 C60.56659687 62.37451517 60.56659687 62.37451517 69 66 C68.35264893 65.63874023 67.70529785 65.27748047 67.03833008 64.90527344 C61.07298662 61.57465402 55.11125944 58.23767505 49.1541748 54.89230347 C46.4152815 53.35433226 43.6751314 51.81871887 40.93212891 50.28808594 C18.29007864 37.64905635 8.02091236 29.18885966 0.45556641 3.79663086 C0 2 0 2 0 0 Z " fill="#F7F7F7" transform="translate(150,134)"/>
<path d="M0 0 C0.66 0 1.32 0 2 0 C-1.78589165 15.67491981 -5.45859772 29.92844163 -19.8359375 38.71484375 C-26.9552789 43.05536159 -34.24059966 47.07655056 -41.5625 51.0625 C-44.02332493 52.40538605 -46.48294123 53.75045474 -48.94140625 55.09765625 C-49.53216949 55.42126129 -50.12293274 55.74486633 -50.7315979 56.07827759 C-56.55047264 59.278995 -62.28366089 62.61949691 -68 66 C-63.50326043 64.61700995 -59.45168864 62.83329694 -55.265625 60.69140625 C-54.63393906 60.36840546 -54.00225311 60.04540466 -53.35142517 59.71261597 C-51.31481187 58.66792758 -49.28220172 57.61574117 -47.25 56.5625 C-46.55935455 56.20672882 -45.86870911 55.85095764 -45.15713501 55.48440552 C-35.86822362 50.69337084 -26.76454723 45.72933938 -18.00292969 40.01196289 C-16.36778111 38.95587851 -14.68833502 37.96878788 -13 37 C-12.34 37.33 -11.68 37.66 -11 38 C-13.0452275 41.75966869 -15.11410134 45.50580436 -17.1875 49.25 C-17.76564453 50.31347656 -18.34378906 51.37695312 -18.93945312 52.47265625 C-19.50986328 53.49746094 -20.08027344 54.52226562 -20.66796875 55.578125 C-21.18641357 56.52075195 -21.7048584 57.46337891 -22.23901367 58.43457031 C-27.16904854 65.61671454 -34.12342901 67.08738667 -42.24316406 68.60693359 C-45.69905464 69.17370754 -49.1583614 69.69088566 -52.625 70.1875 C-54.41744141 70.45336914 -54.41744141 70.45336914 -56.24609375 70.72460938 C-59.16316076 71.15633529 -62.08103782 71.58131476 -65 72 C-55.99858194 71.51481718 -47.15950557 70.71597018 -38.2421875 69.40234375 C-35.44541413 69.05527428 -32.81213524 68.92041127 -30 69 C-44.33557962 83.81343227 -44.33557962 83.81343227 -50.5703125 84.25 C-55.39857508 84.18891037 -59.41620418 82.73658363 -63.875 81 C-68.81047677 78.87861744 -68.81047677 78.87861744 -74 78 C-73.33613281 78.38671875 -72.67226563 78.7734375 -71.98828125 79.171875 C-60.28307939 86.07538091 -60.28307939 86.07538091 -57 91 C-56.18722132 95.55156062 -56.2807318 97.75477782 -58.61328125 101.79296875 C-62.06290231 106.60684673 -65.75175465 110.8707948 -70 115 C-69.94779297 113.45892578 -69.94779297 113.45892578 -69.89453125 111.88671875 C-69.5673672 98.30365646 -71.34626547 88.92978525 -80 78 C-79.36771484 79.57201172 -79.36771484 79.57201172 -78.72265625 81.17578125 C-78.16922506 82.55466913 -77.61584216 83.93357639 -77.0625 85.3125 C-76.64581055 86.34793945 -76.64581055 86.34793945 -76.22070312 87.40429688 C-74.19620042 92.45335783 -72.83152366 96.4265019 -72.75 101.875 C-72.72421875 102.90367187 -72.6984375 103.93234375 -72.671875 104.9921875 C-73 108 -73 108 -74.578125 110.5703125 C-76.24290282 112.90290672 -76.24290282 112.90290672 -75.859375 115.578125 C-72.90946403 123.89151047 -64.62437386 128.60291863 -57.59765625 133.21484375 C-56.74042969 133.80394531 -55.88320313 134.39304687 -55 135 C-55 135.33 -55 135.66 -55 136 C-66.62970731 136.75708764 -66.62970731 136.75708764 -71.43359375 133.5390625 C-75.64850821 129.3977251 -78.8449916 123.80190265 -80 118 C-80.66 118 -81.32 118 -82 118 C-78.90790321 126.65192468 -74.96541705 133.06009981 -69 140 C-68.34 140.99 -67.68 141.98 -67 143 C-70.01283082 143.44090207 -72.18160658 143.48171258 -74.8515625 141.91015625 C-80.31124916 137.53079057 -82.47905869 132.98357296 -83.6875 126.0625 C-83.790625 125.051875 -83.89375 124.04125 -84 123 C-87.10910487 123 -88.379834 124.9472768 -90.625 127 C-91.85089844 128.11375 -91.85089844 128.11375 -93.1015625 129.25 C-93.72804687 129.8275 -94.35453125 130.405 -95 131 C-95 127.23012045 -93.63060902 124.40724654 -92.1875 121 C-86.58934066 107.3598065 -83.57503209 93.79615897 -84 79 C-84.15033691 79.54188965 -84.30067383 80.0837793 -84.45556641 80.64208984 C-87.41342082 91.25951281 -90.47583798 101.80659765 -94.08251953 112.22412109 C-95.31039593 115.79422807 -96.38104969 119.27173461 -97 123 C-97.66 123 -98.32 123 -99 123 C-101.01516125 116.39544831 -103.02624943 109.78966772 -105.03320312 103.18261719 C-105.65641969 101.13103861 -106.28008355 99.07959584 -106.90429688 97.02832031 C-107.73036211 94.31129621 -108.55317382 91.59330886 -109.375 88.875 C-109.62523926 88.05354492 -109.87547852 87.23208984 -110.13330078 86.38574219 C-111.27134485 82.61018805 -112.32771209 78.89301606 -113 75 C-111.576875 73.9171875 -111.576875 73.9171875 -110.125 72.8125 C-107.3099849 70.44894958 -105.89133251 68.65446331 -105 65 C-104.66602213 61.87413125 -104.66602213 61.87413125 -105 59 C-107.5654594 56.4345406 -109.47686668 56.45953913 -113 56 C-112.9375 54.1875 -112.9375 54.1875 -112 52 C-108.5 50.3125 -108.5 50.3125 -105 49 C-104.505 48.505 -104.505 48.505 -104 48 C-98.97215269 47.86743905 -94.41236526 48.15096507 -90.4375 51.4375 C-86.51546616 55.56066378 -86.73172396 58.67332636 -86.37890625 64.17578125 C-85.99093281 67.06758326 -85.19278286 69.34883485 -84 72 C-82.06040233 69.22497446 -82.06040233 69.22497446 -80.9921875 66.984375 C-80.62351562 66.24703125 -80.25484375 65.5096875 -79.875 64.75 C-79.52179688 64.02296875 -79.16859375 63.2959375 -78.8046875 62.546875 C-73.85392026 55.56007795 -66.70211949 51.39059672 -59.3125 47.375 C-57.45159322 46.33346128 -55.59226303 45.28910156 -53.734375 44.2421875 C-52.78755859 43.70948242 -51.84074219 43.17677734 -50.86523438 42.62792969 C-33.0039324 32.47973937 -12.07795505 20.54680663 -1.35546875 2.18359375 C-0.90816406 1.46300781 -0.46085937 0.74242187 0 0 Z " fill="#F9F9F9" transform="translate(348,134)"/>
<path d="M0 0 C1.72011355 2.58017032 2.46454522 4.12058885 3.296875 7 C3.53067871 7.79599609 3.76448242 8.59199219 4.00537109 9.41210938 C4.25109863 10.26611328 4.49682617 11.12011719 4.75 12 C6.35489905 17.48700616 7.97060183 22.96535714 9.7265625 28.40625 C10.00274414 29.2621875 10.27892578 30.118125 10.56347656 31 C11.09482063 32.6368722 11.63046667 34.27235568 12.17089844 35.90625 C13.32295275 39.46911328 14 42.21946958 14 46 C14.66 46 15.32 46 16 46 C16.10828125 44.85273438 16.2165625 43.70546875 16.328125 42.5234375 C16.89864837 37.98119378 18.21133667 33.92019501 19.75 29.625 C22.27068198 22.37765738 24.44098423 15.09451909 26.35058594 7.66259766 C27.79134224 2.20865776 27.79134224 2.20865776 30 0 C30.83263233 18.28707296 25.92315164 36.56679661 18 53 C19.98 51.35 21.96 49.7 24 48 C24.33 48.99 24.66 49.98 25 51 C24.505 51.99 24.505 51.99 24 53 C23.22707053 59.29385422 24.36190939 62.65894335 28.08984375 67.76171875 C32.97353285 73.48432376 38.69704916 77.9596469 45 82 C45 82.33 45 82.66 45 83 C34.39055794 83.77253219 34.39055794 83.77253219 29.625 81.125 C25.97191911 77.37406873 23.49726304 72.5606045 21 68 C23.22249961 76.44549851 28.33840107 83.50581299 34 90 C34 90.33 34 90.66 34 91 C29.7476422 90.74986131 27.52435219 90.43113402 24.1875 87.6875 C22.36922686 85.45362157 21.19673526 83.57758364 20 81 C19.01 80.505 19.01 80.505 18 80 C18.10699219 80.70125 18.21398437 81.4025 18.32421875 82.125 C19.1620712 88.75574623 18.85573906 92.94583319 16 99 C15.34 99 14.68 99 14 99 C10.89640604 93.95665982 10.39985931 89.77058356 11 84 C11.33 83.34 11.66 82.68 12 82 C10.05000871 82.19471111 10.05000871 82.19471111 8 83 C7.71125 83.598125 7.4225 84.19625 7.125 84.8125 C5.44988312 88.06967172 3.16495665 89.26237674 0 91 C-2.875 91.25 -2.875 91.25 -5 91 C-4.61328125 90.5875 -4.2265625 90.175 -3.828125 89.75 C0.05737783 85.4413236 2.59273608 81.2774632 5 76 C4.20335937 76.74056641 4.20335937 76.74056641 3.390625 77.49609375 C2.68421875 78.13675781 1.9778125 78.77742188 1.25 79.4375 C0.55390625 80.07558594 -0.1421875 80.71367187 -0.859375 81.37109375 C-4.5252604 84.16064523 -7.74582399 84.12176547 -12.25 84.0625 C-13.58804688 84.04896484 -13.58804688 84.04896484 -14.953125 84.03515625 C-15.62859375 84.02355469 -16.3040625 84.01195312 -17 84 C-14.39187176 81.15964116 -11.3892921 79.09800126 -8.25 76.875 C-2.36974433 72.54283523 3.63963517 67.8831593 5.67578125 60.57421875 C6.19407349 56.75883854 6.06667533 53.70836346 5 50 C6.65 50.33 8.3 50.66 10 51 C9.34848596 47.82188274 8.17422091 44.96239975 6.93017578 41.9753418 C1.54940121 28.77466047 -0.88328609 14.26343466 0 0 Z " fill="#262626" transform="translate(235,211)"/>
<path d="M0 0 C2.9308348 4.39625219 4.89167644 9.16696593 7 14 C7.433125 14.969375 7.86625 15.93875 8.3125 16.9375 C9.58449377 22.60365405 10.56320626 29.4718516 7.41796875 34.55859375 C5.75824644 36.90226251 5.75824644 36.90226251 6.140625 39.578125 C9.09053597 47.89151047 17.37562614 52.60291863 24.40234375 57.21484375 C25.25957031 57.80394531 26.11679687 58.39304687 27 59 C27 59.33 27 59.66 27 60 C15.37029269 60.75708764 15.37029269 60.75708764 10.56640625 57.5390625 C6.35149179 53.3977251 3.1550084 47.80190265 2 42 C1.34 42 0.68 42 0 42 C3.09209679 50.65192468 7.03458295 57.06009981 13 64 C13.66 64.99 14.32 65.98 15 67 C11.98716918 67.44090207 9.81839342 67.48171258 7.1484375 65.91015625 C1.68875084 61.53079057 -0.47905869 56.98357296 -1.6875 50.0625 C-1.790625 49.051875 -1.89375 48.04125 -2 47 C-5.10910487 47 -6.379834 48.9472768 -8.625 51 C-9.85089844 52.11375 -9.85089844 52.11375 -11.1015625 53.25 C-11.72804687 53.8275 -12.35453125 54.405 -13 55 C-13 51.23012045 -11.63060902 48.40724654 -10.1875 45 C-4.77798334 31.81944377 -2.16025164 18.61452557 -1.24609375 4.3984375 C-1 2 -1 2 0 0 Z " fill="#F4F4F4" transform="translate(266,210)"/>
<path d="M0 0 C0.66 0.33 1.32 0.66 2 1 C1.01 1.66 0.02 2.32 -1 3 C12.048592 3.47868476 24.58836058 2.13819437 37.49902344 0.27539062 C40.0209243 -0.00230404 42.46507085 -0.04772166 45 0 C30.66036317 14.81762472 30.66036317 14.81762472 24.41015625 15.24609375 C19.67936791 15.1852373 15.79733797 13.78670741 11.4375 12.0625 C6.24787127 10.04924169 1.55343088 8.57650596 -4 8 C-4 6 -4 4 -4 2 C-2.125 0.9375 -2.125 0.9375 0 0 Z " fill="#EFEFEF" transform="translate(273,203)"/>
<path d="M0 0 C9.46907601 -0.27850224 9.46907601 -0.27850224 13 2 C15.34549674 5.51824511 15.57991403 6.85775694 15 11 C13.125 13.875 13.125 13.875 10 16 C6.55181651 16.41588778 3.49485035 16.23299002 0 16 C0 10.72 0 5.44 0 0 Z " fill="#DEDEDE" transform="translate(261,346)"/>
<path d="M0 0 C0.66 0 1.32 0 2 0 C4.79028673 4.35284729 5.47605873 7.44368513 4.70703125 12.4296875 C2.4141035 20.76530331 -1.64385735 28.78631441 -9.1875 33.3125 C-13.44289626 34.35270798 -17.64203761 34.15231713 -22 34 C-19.39187176 31.15964116 -16.3892921 29.09800126 -13.25 26.875 C-7.36974433 22.54283523 -1.36036483 17.8831593 0.67578125 10.57421875 C1.19407349 6.75883854 1.06667533 3.70836346 0 0 Z " fill="#EFEFEF" transform="translate(240,261)"/>
<path d="M0 0 C1 2 1 2 0.6875 5.5625 C0.64666135 11.20844339 3.43718984 14.82517337 7 19 C11.59946238 23.63225712 16.51801133 27.4859047 22 31 C22 31.33 22 31.66 22 32 C11.47765278 32.76619033 11.47765278 32.76619033 6.625 30.25 C0.67366756 24.1397299 -3.29640091 14.36142317 -3.234375 5.94140625 C-2.91637069 3.30727051 -1.85261851 1.85261851 0 0 Z " fill="#F3F3F3" transform="translate(258,262)"/>
<path d="M0 0 C0.66 0.33 1.32 0.66 2 1 C0.84596828 4.46209516 0.36657476 4.6663296 -2.671875 6.390625 C-3.46803223 6.84606689 -4.26418945 7.30150879 -5.08447266 7.77075195 C-5.96409668 8.25890381 -6.8437207 8.74705566 -7.75 9.25 C-8.65927246 9.76071045 -9.56854492 10.2714209 -10.50537109 10.79760742 C-18.1701903 15.06284189 -25.90217785 19.20724212 -33.6685791 23.28430176 C-34.97247211 23.96956356 -36.27480728 24.65779781 -37.57556152 25.34899902 C-39.41231217 26.32255544 -41.25563372 27.28226677 -43.1015625 28.23828125 C-44.69991943 29.074198 -44.69991943 29.074198 -46.33056641 29.92700195 C-49 31 -49 31 -52 30 C-41.07319832 23.47698496 -30.03554726 17.17501346 -18.90844727 10.99951172 C-17.89838623 10.4376416 -16.8883252 9.87577148 -15.84765625 9.296875 C-14.87070801 8.75353516 -13.89375977 8.21019531 -12.88720703 7.65039062 C-9.17819567 5.53023869 -5.56076346 3.27414328 -1.95874023 0.97753906 C-1.31235596 0.65495117 -0.66597168 0.33236328 0 0 Z " fill="#2D2D2D" transform="translate(331,170)"/>
<path d="M0 0 C0.66 0.33 1.32 0.66 2 1 C4.91069177 10.45013144 6.29725085 18.83253151 2 28 C1.34 28 0.68 28 0 28 C-4.60521619 20.5165237 -3.38021808 14.17464589 -1.5 5.9375 C-1.00970868 3.95590592 -0.51304287 1.97582583 0 0 Z " fill="#EFEFEF" transform="translate(249,282)"/>
<path d="M0 0 C1.32 0 2.64 0 4 0 C5.0044134 2.2898234 6.00367612 4.5816599 7 6.875 C7.28617188 7.52597656 7.57234375 8.17695313 7.8671875 8.84765625 C10 13.7734375 10 13.7734375 10 16 C9.01 16 8.02 16 7 16 C6.67 15.34 6.34 14.68 6 14 C3.87423218 13.53348793 3.87423218 13.53348793 1.4375 13.375 C0.61121094 13.30023438 -0.21507812 13.22546875 -1.06640625 13.1484375 C-1.70449219 13.09945313 -2.34257812 13.05046875 -3 13 C-3 13.99 -3 14.98 -3 16 C-3.99 16 -4.98 16 -6 16 C-5.37183502 12.05050296 -4.1354471 8.80107972 -2.4375 5.1875 C-1.98246094 4.21167969 -1.52742187 3.23585938 -1.05859375 2.23046875 C-0.70925781 1.49441406 -0.35992187 0.75835937 0 0 Z " fill="#ECECEC" transform="translate(214,346)"/>
<path d="M0 0 C1.32 0.33 2.64 0.66 4 1 C5.28204334 3.3788373 6.29118746 5.56029278 7.25 8.0625 C7.518125 8.72572266 7.78625 9.38894531 8.0625 10.07226562 C8.72205738 11.70938127 9.36285169 13.35403353 10 15 C9.01 15.33 8.02 15.66 7 16 C6.67 15.01 6.34 14.02 6 13 C3.03 13 0.06 13 -3 13 C-3.33 13.99 -3.66 14.98 -4 16 C-4.99 15.67 -5.98 15.34 -7 15 C-3.535 7.575 -3.535 7.575 0 0 Z " fill="#D7D7D7" transform="translate(240,346)"/>
<path d="M0 0 C0.33 0 0.66 0 1 0 C1.63263937 8.10129863 0.73847365 16.11951422 -4.35546875 22.76953125 C-7.86833107 26.03752917 -11.32761352 26.71965681 -16 27 C-15.113125 26.030625 -14.22625 25.06125 -13.3125 24.0625 C-7.26018685 16.97305338 -3.72004367 8.4690356 0 0 Z " fill="#EFEFEF" transform="translate(246,275)"/>
<path d="M0 0 C2.60033291 3.22881217 4.4283295 6.6264561 6.3125 10.3125 C9.07659948 15.54076477 11.98277387 19.68883049 16 24 C16 24.33 16 24.66 16 25 C11.89128321 24.75831078 9.54614758 24.42202313 6.25 21.875 C0.82512673 14.94321749 -0.14062136 8.4372815 0 0 Z " fill="#EFEFEF" transform="translate(253,277)"/>
<path d="M0 0 C-0.16925505 7.37028815 -1.52941727 13.03082757 -6 19 C-9.6286003 22.0703541 -12.31689362 22.32672835 -17 22 C-16.175 21.13375 -15.35 20.2675 -14.5 19.375 C-10.88223043 15.20595126 -8.32806988 10.54621915 -5.71679688 5.71240234 C-2.59614699 0 -2.59614699 0 0 0 Z " fill="#ECECEC" transform="translate(237,255)"/>
<path d="M0 0 C3.375 -0.1875 3.375 -0.1875 7 0 C9 3 9 3 8.6875 6.125 C8 9 8 9 7 10 C4.66702567 10.04092937 2.33294775 10.04241723 0 10 C0 6.7 0 3.4 0 0 Z " fill="#1E1E1E" transform="translate(264,349)"/>
<path d="M0 0 C0.66 0.33 1.32 0.66 2 1 C0.73472831 4.79581506 -0.30707268 4.9745767 -3.8046875 6.734375 C-5.26841797 7.47107422 -5.26841797 7.47107422 -6.76171875 8.22265625 C-7.78910156 8.72667969 -8.81648438 9.23070312 -9.875 9.75 C-10.89464844 10.26949219 -11.91429687 10.78898438 -12.96484375 11.32421875 C-14.43244141 12.05318359 -14.43244141 12.05318359 -15.9296875 12.796875 C-16.82929199 13.24385742 -17.72889648 13.69083984 -18.65576172 14.15136719 C-21 15 -21 15 -24 14 C-21.31294159 12.41591638 -18.62527171 10.832873 -15.9375 9.25 C-15.18533203 8.8065625 -14.43316406 8.363125 -13.65820312 7.90625 C-12.16165551 7.02516569 -10.66345687 6.14687935 -9.16357422 5.27148438 C-7.75147711 4.44162636 -6.34640801 3.59965739 -4.94970703 2.74414062 C-3.33386156 1.77052775 -1.67041175 0.87670018 0 0 Z " fill="#343434" transform="translate(303,186)"/>
<path d="M0 0 C1.32 0.33 2.64 0.66 4 1 C4 2.32 4 3.64 4 5 C3.01 5.33 2.02 5.66 1 6 C-0.20882096 8.00016466 -0.20882096 8.00016466 -1 10 C0.32 10 1.64 10 3 10 C3 10.66 3 11.32 3 12 C2.21625 12.103125 1.4325 12.20625 0.625 12.3125 C-2.33045181 12.77595022 -2.33045181 12.77595022 -4 16 C-4.99 15.67 -5.98 15.34 -7 15 C-3.535 7.575 -3.535 7.575 0 0 Z " fill="#E6E6E6" transform="translate(240,346)"/>
<path d="M0 0 C2.97 0 5.94 0 9 0 C9 0.66 9 1.32 9 2 C7.02 2.33 5.04 2.66 3 3 C2.67 6.63 2.34 10.26 2 14 C3.98 14 5.96 14 8 14 C8 14.66 8 15.32 8 16 C5.36 16 2.72 16 0 16 C0 10.72 0 5.44 0 0 Z " fill="#F5F5F5" transform="translate(261,346)"/>
<path d="M0 0 C1.32 0 2.64 0 4 0 C4.99 2.97 5.98 5.94 7 9 C4.29120665 10.35439668 1.99066732 10.06501451 -1 10 C-2.23076923 4.58461538 -2.23076923 4.58461538 -1.0625 1.625 C-0.5365625 0.820625 -0.5365625 0.820625 0 0 Z " fill="#DFDFDF" transform="translate(214,346)"/>
<path d="M0 0 C0.99 0 1.98 0 3 0 C3 5.28 3 10.56 3 16 C2.01 16 1.02 16 0 16 C0 10.72 0 5.44 0 0 Z " fill="#DBDBDB" transform="translate(288,346)"/>
<path d="M0 0 C0 0.33 0 0.66 0 1 C-6.44283279 1.10402152 -12.66459122 0.73459309 -19.0625 0 C-19.92810547 -0.09539062 -20.79371094 -0.19078125 -21.68554688 -0.2890625 C-23.79084969 -0.52169264 -25.89549956 -0.76021969 -28 -1 C-28 -1.33 -28 -1.66 -28 -2 C-18.85081525 -4.21243922 -9.06676762 -1.83834068 0 0 Z " fill="#444444" transform="translate(227,207)"/>
<path d="M0 0 C4.39383706 1.59623144 8.28995807 3.78024333 12.3125 6.125 C12.95767578 6.49753906 13.60285156 6.87007812 14.26757812 7.25390625 C15.84675945 8.16632213 17.42361864 9.08275509 19 10 C18.01 10.495 18.01 10.495 17 11 C15.12060547 10.28735352 15.12060547 10.28735352 12.8671875 9.12890625 C12.06152344 8.71962891 11.25585938 8.31035156 10.42578125 7.88867188 C9.58402344 7.45103516 8.74226562 7.01339844 7.875 6.5625 C7.02550781 6.12873047 6.17601562 5.69496094 5.30078125 5.24804688 C3.19677908 4.17240532 1.0968542 3.08949234 -1 2 C-0.67 1.34 -0.34 0.68 0 0 Z " fill="#3B3B3B" transform="translate(205,192)"/>
<path d="M0 0 C0.33 0 0.66 0 1 0 C1 3.3 1 6.6 1 10 C6.01535052 9.67039784 6.01535052 9.67039784 10 7 C10.66 7.33 11.32 7.66 12 8 C11.25 9.9375 11.25 9.9375 10 12 C7.875 12.75 7.875 12.75 6 13 C6 12.34 6 11.68 6 11 C4.02 11 2.04 11 0 11 C0 7.37 0 3.74 0 0 Z " fill="#CDCDCD" transform="translate(263,349)"/>
<path d="M0 0 C0.99 0 1.98 0 3 0 C3.66 2.31 4.32 4.62 5 7 C4.01 7 3.02 7 2 7 C1.67 6.34 1.34 5.68 1 5 C-0.89533342 4.53476937 -0.89533342 4.53476937 -3.0625 4.375 C-4.361875 4.25125 -5.66125 4.1275 -7 4 C-7 3.67 -7 3.34 -7 3 C-5.5459375 2.5359375 -5.5459375 2.5359375 -4.0625 2.0625 C-1.15934208 1.30476658 -1.15934208 1.30476658 0 0 Z " fill="#D4D4D4" transform="translate(219,355)"/>
<path d="M0 0 C0.66 0 1.32 0 2 0 C1.39301257 4.12751449 -0.03810791 7.3321148 -2 11 C-2.99 11 -3.98 11 -5 11 C-3.55049545 7.2089881 -1.84827434 3.6125362 0 0 Z " fill="#313131" transform="translate(233,253)"/>
<path d="M0 0 C0.66 0 1.32 0 2 0 C3.65 3.63 5.3 7.26 7 11 C6.01 11.33 5.02 11.66 4 12 C3.32645501 10.56570999 2.66140299 9.12742943 2 7.6875 C1.62875 6.88699219 1.2575 6.08648437 0.875 5.26171875 C0 3 0 3 0 0 Z " fill="#343434" transform="translate(266,252)"/>
<path d="M0 0 C2.97 0.495 2.97 0.495 6 1 C6 1.66 6 2.32 6 3 C4.824375 3.1546875 4.824375 3.1546875 3.625 3.3125 C0.66954819 3.77595022 0.66954819 3.77595022 -1 7 C-1.99 6.67 -2.98 6.34 -4 6 C-2.68 4.02 -1.36 2.04 0 0 Z " fill="#F0F0F0" transform="translate(237,355)"/>
<path d="M0 0 C-3.12781414 2.52631142 -6.29577411 4.42373366 -10 6 C-10.99 5.67 -11.98 5.34 -13 5 C-11.40377344 3.96679519 -9.79770894 2.94877571 -8.1875 1.9375 C-7.29417969 1.36902344 -6.40085937 0.80054688 -5.48046875 0.21484375 C-3 -1 -3 -1 0 0 Z " fill="#414141" transform="translate(292,195)"/>
<path d="M0 0 C0.99 0.33 1.98 0.66 3 1 C1.02 5.455 1.02 5.455 -1 10 C-1.66 8.68 -2.32 7.36 -3 6 C-1.625 2.75 -1.625 2.75 0 0 Z " fill="#383838" transform="translate(242,279)"/>
<path d="M0 0 C0.33 0 0.66 0 1 0 C1 4.29 1 8.58 1 13 C0.67 13 0.34 13 0 13 C-0.144375 12.236875 -0.28875 11.47375 -0.4375 10.6875 C-0.9632594 7.91827092 -0.9632594 7.91827092 -2 5 C-1.0625 2.3125 -1.0625 2.3125 0 0 Z " fill="#6C6C6C" transform="translate(264,211)"/>
<path d="M0 0 C-5.445 2.475 -5.445 2.475 -11 5 C-10.67 3.68 -10.34 2.36 -10 1 C-3.375 -1.125 -3.375 -1.125 0 0 Z " fill="#4B4B4B" transform="translate(228,212)"/>
<path d="M0 0 C-0.66 0 -1.32 0 -2 0 C-2 0.66 -2 1.32 -2 2 C-5.63 2 -9.26 2 -13 2 C-13 1.67 -13 1.34 -13 1 C-11.58622218 0.63447197 -10.16879424 0.28304505 -8.75 -0.0625 C-7.96109375 -0.25972656 -7.1721875 -0.45695313 -6.359375 -0.66015625 C-3.89605178 -1.01497267 -2.34395868 -0.76877544 0 0 Z " fill="#3E3E3E" transform="translate(291,205)"/>
<path d="M0 0 C0 3.86695678 -1.41909971 6.5088452 -3 10 C-3.99 9.67 -4.98 9.34 -6 9 C-4.47291037 5.56404834 -2.40072955 2.88087546 0 0 Z " fill="#404040" transform="translate(232,211)"/>
<path d="M0 0 C2.12508244 3.18762365 2.5020163 5.26512223 3 9 C2.34 9 1.68 9 1 9 C0.67 9.66 0.34 10.32 0 11 C0 7.37 0 3.74 0 0 Z " fill="#3D3D3D" transform="translate(235,211)"/>
<path d="M0 0 C0.66 0.33 1.32 0.66 2 1 C2.625 3.5625 2.625 3.5625 3 6 C1.35 6 -0.3 6 -2 6 C-1.34 4.02 -0.68 2.04 0 0 Z " fill="#272727" transform="translate(241,350)"/>
<path d="M0 0 C1.5 1.3125 1.5 1.3125 3 3 C3 3.99 3 4.98 3 6 C1.35 6 -0.3 6 -2 6 C-1.34 4.02 -0.68 2.04 0 0 Z " fill="#292929" transform="translate(215,350)"/>
<path d="M0 0 C0.33 0.66 0.66 1.32 1 2 C1.99 1.67 2.98 1.34 4 1 C4.33 2.65 4.66 4.3 5 6 C3.35 6.33 1.7 6.66 0 7 C0 4.69 0 2.38 0 0 Z " fill="#5F5F5F" transform="translate(252,273)"/>
</svg>
